<svg width="515" height="263" viewBox="0 0 515 263" fill="none" xmlns="http://www.w3.org/2000/svg">
<path d="M118.702 256.477C119.433 256.843 119.616 257.575 119.616 258.307C119.616 258.856 119.433 259.405 119.068 259.77C118.702 260.136 118.155 260.319 117.607 260.319H82.9092C82.3613 260.319 81.8135 260.136 81.4482 259.77C81.083 259.405 80.9004 258.856 80.9004 258.307C80.9004 257.758 81.2656 257.026 81.8134 256.477C83.457 255.38 84.918 253.916 86.3789 251.721C87.8399 249.525 88.5703 246.781 88.5703 243.488V225.193C88.5703 217.326 87.8399 211.288 86.3789 206.714C84.918 202.324 82.9092 200.128 80.3525 200.128C77.7958 200.128 75.6044 202.324 73.9608 206.897C72.3173 211.471 71.4042 217.874 71.4042 226.29V243.488C71.4042 246.781 72.1347 249.525 73.5956 251.721C75.0566 253.916 76.7001 255.563 78.3437 256.477C78.8916 256.843 79.2568 257.575 79.2568 258.307C79.2568 259.039 79.0742 259.405 78.7089 259.77C78.3437 260.136 77.7958 260.319 77.248 260.319H42.3678C41.8199 260.319 41.4547 260.136 40.9069 259.77C40.5416 259.405 40.359 258.856 40.359 258.307C40.359 257.758 40.7242 257.026 41.4547 256.477C43.0983 255.38 44.5592 253.916 46.0202 251.721C47.4811 249.525 48.2116 246.781 48.2116 243.488V225.193C48.2116 219.887 47.8464 215.496 47.1159 211.654C46.3854 207.812 45.4723 205.068 44.194 203.055C42.9156 201.226 41.4547 200.128 39.8111 200.128C37.2545 200.128 35.2457 202.324 33.6021 206.897C31.9585 211.471 31.0454 217.874 31.0454 226.29V243.488C31.0454 246.781 31.7759 249.525 33.2369 251.721C34.6978 253.916 36.3414 255.563 37.8023 256.477C38.5328 256.843 38.898 257.575 38.898 258.307C38.898 259.039 38.7154 259.222 38.3502 259.77C37.9849 260.136 37.4371 260.319 36.8892 260.319H2.00906C1.46121 260.319 0.913343 260.136 0.548106 259.77C0.182868 259.405 0.000244141 258.856 0.000244141 258.307C0.000244141 257.575 0.365493 257.026 1.09597 256.477C2.73954 255.38 4.20049 253.916 5.66144 251.721C7.12239 249.525 7.85286 246.781 7.85286 243.488V211.471C7.85286 210.008 6.93976 208.544 5.29619 207.263C3.65262 205.983 2.73953 204.885 2.73953 203.787C2.73953 202.689 2.92215 202.507 3.47 202.141C4.01786 201.775 4.56572 201.592 4.93096 201.592C8.2181 201.592 11.3226 201.043 14.4271 199.762C17.349 198.482 19.9057 197.201 21.7319 195.737C23.5581 194.274 25.3843 192.993 27.3931 191.712C29.4019 190.432 31.0454 189.883 32.3238 189.883C33.6021 189.883 34.8804 190.615 34.8804 191.895C34.8804 193.176 34.8804 192.81 34.5152 193.176C34.3326 193.542 33.9673 193.908 33.4195 194.64C32.8716 195.188 32.5064 195.737 32.3238 195.92C36.7066 192.078 42.9156 190.066 51.1335 190.066C59.3513 190.066 59.7166 190.981 62.4559 192.81C65.1951 194.64 67.2039 197.201 68.4823 200.86C72.8651 193.725 80.3525 190.249 91.3096 190.249C102.267 190.249 95.1446 190.249 96.7882 190.615C98.4317 190.981 99.8927 191.346 101.171 191.895C102.449 192.444 103.545 193.359 104.458 194.274C105.371 195.188 106.284 196.286 107.015 197.384C107.745 198.482 108.293 199.762 108.841 201.226C109.389 202.689 109.754 204.336 110.119 205.8C110.485 207.263 110.667 209.093 110.667 211.105C110.667 213.118 110.85 215.13 111.032 216.96V243.671C111.032 245.866 111.398 248.062 112.311 250.074C113.224 252.086 114.137 253.55 115.05 254.465C115.963 255.38 116.876 256.111 117.789 256.66L118.702 256.477Z" fill="black"/>
<path d="M176.593 231.414C178.053 229.767 179.697 229.584 181.523 231.048C183.349 232.511 183.897 234.341 183.167 236.719C180.793 244.952 176.593 251.355 170.566 255.929C164.722 260.503 158.148 262.881 151.209 262.881C144.269 262.881 134.225 259.405 127.833 252.27C121.442 245.135 118.155 236.536 118.155 226.474C118.155 216.411 121.442 207.813 127.833 200.678C134.225 193.542 142.078 190.066 151.209 190.066C160.339 190.066 161.8 190.981 165.818 192.628C169.836 194.274 173.123 197.019 175.497 200.678C177.871 204.337 178.967 208.545 178.967 213.667C178.967 218.79 178.601 216.96 178.053 218.973C177.506 220.802 176.41 222.998 174.949 225.376C173.305 227.755 171.479 229.95 169.105 231.779C166.731 233.609 163.627 235.073 159.609 236.17C155.591 237.268 151.026 237.634 145.73 237.451C148.469 240.561 151.939 242.025 155.957 242.025C159.974 242.025 160.339 241.659 162.714 240.927C165.088 240.195 167.462 238.915 169.653 237.451C172.027 235.804 174.218 233.975 176.227 231.779L176.593 231.414ZM141.712 223.364C141.712 226.657 142.078 229.584 142.991 231.962C146.46 230.133 149.382 227.755 151.756 225.01C154.13 222.266 155.774 219.339 156.87 216.046C157.965 212.935 158.513 209.642 158.513 205.983C158.513 202.324 157.965 201.226 156.687 199.031C155.409 196.836 153.765 195.555 151.574 195.555C149.382 195.555 146.278 198.116 144.634 203.239C142.991 208.362 142.078 215.131 142.078 223.364H141.712Z" fill="black"/>
<path d="M243.979 231.414C245.44 229.767 247.084 229.584 248.91 231.048C250.736 232.511 251.284 234.341 250.553 236.719C248.179 244.952 243.979 251.355 237.953 255.929C232.109 260.503 225.535 262.881 218.595 262.881C211.656 262.881 201.612 259.405 195.22 252.27C188.828 245.135 185.541 236.536 185.541 226.474C185.541 216.411 188.828 207.813 195.22 200.678C201.612 193.542 209.464 190.066 218.595 190.066C227.726 190.066 229.187 190.981 233.205 192.628C237.222 194.274 240.509 197.019 242.883 200.678C245.257 204.337 246.353 208.545 246.353 213.667C246.353 218.79 245.988 216.96 245.44 218.973C244.892 220.802 243.796 222.998 242.336 225.376C240.692 227.755 238.866 229.95 236.492 231.779C234.118 233.609 231.013 235.073 226.996 236.17C222.978 237.268 218.412 237.634 213.117 237.451C215.856 240.561 219.326 242.025 223.343 242.025C227.361 242.025 227.726 241.659 230.1 240.927C232.474 240.195 234.848 238.915 237.04 237.451C239.414 235.804 241.605 233.975 243.614 231.779L243.979 231.414ZM209.099 223.364C209.099 226.657 209.464 229.584 210.377 231.962C213.847 230.133 216.769 227.755 219.143 225.01C221.517 222.266 223.161 219.339 224.256 216.046C225.352 212.935 225.9 209.642 225.9 205.983C225.9 202.324 225.352 201.226 224.074 199.031C222.795 196.836 221.152 195.555 218.96 195.555C216.769 195.555 213.664 198.116 212.021 203.239C210.377 208.362 209.464 215.131 209.464 223.364H209.099Z" fill="black"/>
<path d="M279.772 249.708C279.772 251.904 280.138 253.367 280.868 254.282C281.599 255.197 282.512 255.563 283.425 255.563C284.338 255.563 285.068 255.563 285.981 255.746C286.894 255.929 287.077 256.661 287.077 257.575C287.077 258.49 286.529 259.222 285.616 259.954C284.703 260.686 283.059 261.417 280.685 261.966C278.311 262.515 275.572 262.881 272.285 262.881C268.998 262.881 266.259 262.332 264.067 261.417C261.876 260.503 260.232 259.039 259.136 257.209C258.041 255.38 257.493 253.55 257.128 251.721C256.762 249.891 256.58 247.879 256.58 245.683V197.567H252.745C252.38 197.567 252.014 197.567 251.649 197.018C251.284 196.652 251.101 196.286 251.101 195.738V194.274C251.101 193.176 251.466 192.81 252.38 192.81C255.301 192.81 258.223 192.079 261.145 190.432C264.067 188.785 266.624 186.956 268.815 184.76C270.824 182.565 272.65 180.37 273.929 178.357C275.207 176.162 275.937 174.515 275.937 173.052C275.937 171.588 276.303 171.405 277.033 171.039C277.764 170.673 278.494 170.673 279.042 171.039C279.772 171.405 280.138 171.954 280.138 172.869V192.627H284.886C285.251 192.627 285.616 192.627 285.981 193.176C286.347 193.542 286.529 193.908 286.529 194.457V195.738C286.529 196.286 286.529 196.652 285.981 197.018C285.616 197.384 285.251 197.567 284.886 197.567H279.772V250.074V249.708Z" fill="black"/>
<path d="M335.47 190.066C342.227 190.066 347.888 193.542 352.636 200.677C357.384 207.812 359.759 216.228 359.759 226.29C359.759 236.353 357.384 244.951 352.636 252.086C347.888 259.222 342.227 262.698 335.47 262.698C328.713 262.698 323.052 259.953 318.669 254.465C318.669 256.111 317.756 257.392 316.478 258.673C315.2 259.953 313.739 260.319 312.095 260.319H289.816C289.268 260.319 288.72 260.136 288.355 259.77C287.989 259.405 287.807 258.856 287.807 258.307C287.807 257.575 288.172 257.026 288.72 256.477C290.363 255.38 292.007 253.916 293.468 251.721C294.929 249.525 295.659 246.781 295.659 243.488V186.773C295.659 185.309 294.746 183.845 293.103 182.565C291.459 181.284 290.546 180.186 290.546 179.089C290.546 177.991 290.729 177.808 291.277 177.442C291.824 177.076 292.372 176.893 292.737 176.893C296.025 176.893 299.129 176.344 302.234 175.064C305.156 173.966 307.712 172.502 309.538 171.222C311.365 169.758 313.191 168.477 315.2 167.197C317.208 165.916 318.852 165.367 320.313 165.367C321.774 165.367 322.87 166.099 322.87 167.38C322.87 168.66 322.504 168.843 321.774 169.575C321.043 170.307 320.496 171.222 319.765 172.502C319.035 173.783 318.669 175.064 318.669 176.71V198.481C322.87 192.993 328.348 190.432 335.288 190.432L335.47 190.066ZM321.409 244.951C323.052 250.074 325.244 252.635 327.618 252.635C329.992 252.635 332.001 250.074 333.827 244.951C335.47 239.829 336.383 233.608 336.383 226.29C336.383 218.972 336.018 217.143 335.105 213.118C334.375 209.093 333.279 205.983 331.818 203.604C330.54 201.226 329.079 200.128 327.435 200.128C325.791 200.128 324.331 201.226 323.052 203.604C321.774 205.983 320.678 209.093 319.765 213.118C319.035 217.143 318.487 221.533 318.487 226.29C318.487 233.608 319.4 239.829 321.043 244.951H321.409Z" fill="black"/>
<path d="M435.545 257.758C436.093 258.124 436.458 258.856 436.458 259.587C436.458 260.319 436.275 260.685 435.91 261.051C435.545 261.417 434.997 261.6 434.449 261.6H412.352C410.343 261.6 408.7 260.868 407.422 259.222C406.143 257.575 405.595 255.38 405.595 252.452V251.721C398.656 258.307 390.803 261.6 382.22 261.6C373.637 261.6 372.176 259.77 368.341 256.294C364.689 252.818 362.68 247.879 362.68 241.841C362.68 235.804 363.776 234.34 365.784 231.23C367.976 228.12 370.533 225.558 373.637 223.729C376.742 221.899 380.211 220.07 384.046 218.423C387.699 216.777 391.168 215.313 394.456 214.032C397.56 212.935 400.299 211.471 402.308 209.642C404.5 207.995 405.413 206.165 405.413 203.97C405.413 201.775 405.048 201.958 404.5 200.86C403.952 199.762 402.856 199.03 401.578 198.299C400.299 197.567 398.838 197.201 397.195 197.201C395.551 197.201 393.542 197.75 391.899 198.847C390.255 199.945 388.794 201.226 387.516 202.689C386.238 204.153 384.959 205.8 383.864 207.263C382.585 208.727 381.307 210.007 379.846 211.105C378.385 212.203 376.742 212.752 375.281 212.752C373.82 212.752 372.176 212.02 370.715 210.739C369.072 209.459 368.341 207.629 368.341 205.617C368.341 201.592 370.898 198.299 375.829 195.371C380.759 192.444 387.881 190.98 397.012 190.98C406.143 190.98 398.656 190.98 400.482 191.163C402.126 191.163 404.682 191.895 408.335 192.81C411.987 193.725 415.092 194.822 418.013 196.469C420.935 197.933 423.492 200.311 425.683 203.421C427.875 206.531 428.971 210.19 428.971 214.398V244.402C428.971 247.696 429.701 250.44 431.162 252.635C432.623 254.831 434.266 256.477 435.91 257.392L435.545 257.758ZM405.413 242.573V215.862C404.5 216.594 403.221 217.691 401.578 218.789C399.934 220.07 398.656 220.985 397.56 221.899C396.464 222.814 395.186 223.729 393.908 225.01C392.629 226.29 391.534 227.388 390.621 228.486C389.708 229.583 389.16 230.864 388.612 232.328C388.064 233.791 387.699 235.255 387.699 236.901C387.699 240.743 388.612 243.488 390.438 245.134C392.264 246.781 394.273 247.696 396.464 247.696C399.752 247.696 402.673 246.049 405.595 242.573H405.413Z" fill="black"/>
<path d="M474.443 256.477C475.174 256.843 475.539 257.575 475.539 258.307C475.539 259.039 475.356 259.222 474.991 259.77C474.626 260.319 474.078 260.319 473.53 260.319H438.65C438.102 260.319 437.554 260.136 437.189 259.77C436.824 259.405 436.641 258.856 436.641 258.307C436.641 257.575 437.006 257.026 437.737 256.477C439.381 255.38 440.841 253.916 442.302 251.721C443.763 249.525 444.494 246.781 444.494 243.488V186.773C444.494 185.309 443.581 183.845 441.937 182.565C440.294 181.284 439.381 180.186 439.381 179.089C439.381 177.991 439.563 177.808 440.111 177.442C440.659 177.076 441.207 176.893 441.572 176.893C444.859 176.893 447.964 176.344 451.068 175.064C453.99 173.966 456.547 172.502 458.373 171.222C460.199 169.758 462.025 168.477 464.034 167.197C466.043 165.916 467.686 165.367 468.965 165.367C470.243 165.367 471.521 166.099 471.521 167.38C471.521 168.66 471.156 168.843 470.426 169.575C469.695 170.307 469.147 171.222 468.417 172.502C467.686 173.783 467.321 175.064 467.321 176.71V243.671C467.321 246.964 468.052 249.708 469.513 251.903C470.974 254.099 472.617 255.745 474.078 256.66L474.443 256.477Z" fill="black"/>
<path d="M513.524 256.477C514.254 256.843 514.619 257.575 514.619 258.307C514.619 259.039 514.437 259.222 514.072 259.77C513.706 260.319 513.158 260.319 512.611 260.319H477.73C477.183 260.319 476.635 260.136 476.27 259.77C475.904 259.405 475.722 258.856 475.722 258.307C475.722 257.575 476.087 257.026 476.817 256.477C478.461 255.38 479.922 253.916 481.383 251.721C482.844 249.525 483.574 246.781 483.574 243.488V186.773C483.574 185.309 482.661 183.845 481.018 182.565C479.374 181.284 478.461 180.186 478.461 179.089C478.461 177.991 478.644 177.808 479.191 177.442C479.739 177.076 480.287 176.893 480.652 176.893C483.939 176.893 487.044 176.344 490.149 175.064C493.07 173.966 495.627 172.502 497.453 171.222C499.279 169.758 501.106 168.477 503.114 167.197C505.123 165.916 506.767 165.367 508.045 165.367C509.323 165.367 510.602 166.099 510.602 167.38C510.602 168.66 510.237 168.843 509.506 169.575C508.776 170.307 508.228 171.222 507.497 172.502C506.767 173.783 506.402 175.064 506.402 176.71V243.671C506.402 246.964 507.132 249.708 508.593 251.903C510.054 254.099 511.698 255.745 513.159 256.66L513.524 256.477Z" fill="black"/>
<g clip-path="url(#clip0_37_235)">
<path d="M331.652 98.1474C335.737 89.7244 335.632 74.176 335.987 56.9742C336.341 39.7724 329.514 28.619 319.044 19.1208C311.232 10.8786 287.083 1.38047 275.363 0.305243C263.643 -0.769987 236.83 1.02269 219.962 5.32361C203.092 9.44564 191.552 17.6878 181.608 34.3548C171.665 51.0199 174.504 67.5062 174.504 75.5713C174.504 83.6365 184.625 104.064 184.625 104.064L185.336 105.676C185.159 107.826 184.271 110.513 182.494 113.739C175.924 124.311 169 128.254 169 128.254C169 128.254 178.055 131.658 188.355 128.075C190.663 127.179 192.794 126.103 194.571 125.028C197.233 127.896 202.822 130.967 211.7 135.628C227.681 144.051 254.392 142.33 269.178 140.482C282.032 138.878 294.897 133.809 305.55 127.717C308.213 128.613 311.765 129.51 315.671 129.51C326.502 129.51 333.961 125.388 333.961 125.388C333.961 125.388 325.829 121.601 322.319 113.178C323.03 112.461 327.568 106.751 331.652 98.1493V98.1474Z" fill="#12284F"/>
<path d="M320.287 106.032C321.353 104.42 322.418 102.627 323.483 100.834C327.922 92.2326 336.175 56.7443 325.792 36.5014C316.914 21.6271 303.596 12.3097 288.68 7.82987C268.971 1.91705 249.261 5.14274 238.784 6.03719C228.307 6.93353 206.643 15.3565 199.541 22.8812C192.438 30.4078 184.189 39.6744 182.491 54.995C180.5 72.9481 182.851 85.0638 186.579 92.7692C189.779 99.3826 191.781 105.009 193.487 109.468C193.768 110.205 194.263 111.53 194.263 111.53C194.263 111.53 192.953 113.185 190.876 115.583C189.027 117.718 186.756 119.469 186.756 119.469C186.756 119.469 189.837 120.136 193.332 120.205C196.827 120.277 199.722 119.731 199.722 119.731C199.722 119.731 200.853 121.175 201.264 121.55C210.528 130.018 225.593 134.434 231.148 135.238C248.473 137.744 279.802 135.775 294.185 128.069C302.354 123.768 306.97 120.721 309.278 118.75C311.055 120.362 313.894 122.333 317.268 123.409C325.614 126.276 333.781 125.38 333.781 125.38C333.781 125.38 322.127 119.848 320.287 106.026V106.032Z" fill="#F44A66"/>
<path d="M309.75 28.4681C302.432 18.0698 283.502 10.4058 277.317 9.80132C263.013 8.40597 234.878 9.26464 222.27 16.0738C199.931 27.0897 194.925 37.7573 194.925 37.7573C194.925 37.7573 189.544 47.1274 188.887 56.9325C188.456 63.3688 186.756 83.0958 194.569 96.1775C195.101 96.8949 196.218 98.8778 196.75 99.7741C197.216 100.689 198.233 105.308 195.397 109.852C192.068 115.185 186.754 119.475 186.754 119.475C186.754 119.475 194.39 121.267 201.67 119.296C204.69 118.4 207.175 116.788 208.595 115.533C213.745 120.91 219.427 125.389 225.819 127.182C243.044 132.379 260.426 130.664 269.5 128.794C285.693 125.459 294.866 121.286 301.046 116.854C301.359 116.629 302.35 115.712 302.35 115.712C302.35 115.712 305.085 116.302 309.584 115.765C313.581 115.289 316.201 114.279 316.201 114.279C316.201 114.279 314.493 113.251 312.752 112.012C311.012 110.773 309.25 109.336 309.25 109.336C309.25 109.336 310.342 107.99 310.778 107.434C316.466 100.168 322.715 88.5944 322.418 77.3657C322.063 63.9262 324.043 48.7864 309.75 28.4738V28.4681Z" fill="#FFD194"/>
<path d="M304.307 103.881C304.307 103.881 313.445 94.7162 314.074 80.5857C314.327 74.8574 317.206 55.6916 310.105 43.864C302.453 30.4472 292.587 20.9132 280.868 17.3279C265.242 12.6692 249.793 15.1774 241.448 15.8949C233.102 16.6123 213.926 27.005 208.421 32.9197C202.917 38.8325 193.328 50.1233 193.682 62.3087C194.037 74.494 194.037 85.7829 196.879 91.6976C199.721 97.7912 204.16 102.629 205.58 105.676C212.582 115.944 228.59 121.962 234.167 123.058C246.592 125.499 272.521 123.416 283.887 117.503C287.438 115.71 290.279 114.099 292.765 112.844C295.073 113.92 298.624 115.174 302.354 115.712C309.457 116.788 316.204 114.279 316.204 114.279C316.204 114.279 306.983 108.796 304.307 103.887V103.881Z" fill="#88967E"/>
<path d="M301.466 91.517C303.063 88.4702 304.128 85.962 304.839 84.5289C307.325 79.3317 306.793 69.2968 307.147 58.5445C307.325 47.7922 300.755 41.3409 295.961 36.1455C291.167 30.9482 276.074 25.0354 268.793 24.4969C261.512 23.9602 242.868 25.2143 234.522 27.9014C230.437 29.3344 216.006 35.1927 209.793 45.5853C201.695 56.443 202.741 69.1726 203.299 74.6918C203.805 79.6838 205.718 84.094 209.308 90.6207C210.522 92.8295 213.387 95.4978 213.387 95.4978C213.387 95.4978 212.642 96.4393 211.024 97.7876C209.259 99.2583 207.709 100.121 207.709 100.121C207.709 100.121 209.52 100.912 212.566 101.098C215.928 101.303 217.641 100.588 217.641 100.588C217.641 100.588 220.492 103.706 230.435 109.082C245.208 117.042 262.042 114.995 271.277 113.383C280.866 111.59 287.79 107.47 292.763 102.81C293.295 103.346 294.006 103.885 294.539 104.422C300.221 108.723 306.791 107.109 306.791 107.109C306.791 107.109 299.687 100.021 301.464 91.5189L301.466 91.517Z" fill="#3EC6C6"/>
<path d="M299.157 72.5222C299.157 68.2213 299.157 54.603 295.961 49.048C290.634 40.0883 271.943 27.8127 244.111 30.948C242.698 31.1061 228.066 35.505 221.791 42.0957C210.071 54.6388 210.905 78.0773 213.213 82.5571C213.745 83.6323 214.81 85.425 216.587 87.7544C216.587 88.6507 216.232 89.547 216.055 90.6223C214.812 96.1773 207.708 100.12 207.708 100.12C207.708 100.12 214.456 102.808 220.494 99.403C221.914 98.5067 223.336 97.4314 224.401 96.5351C229.551 101.553 237.291 105.314 243.683 106.389C251.496 107.643 268.793 108.184 277.494 103.525C286.018 99.0452 285.663 98.8663 285.663 98.8663C285.663 98.8663 288.001 99.2429 291.057 98.5349C294.114 97.8269 296.495 96.3562 296.495 96.3562C296.495 96.3562 295.42 96.0455 294.095 95.3017C292.625 94.4769 291.602 93.8272 291.602 93.8272C291.602 93.8272 293.595 91.2456 294.804 89.1083C299.432 80.932 299.157 72.5204 299.157 72.5204V72.5222Z" fill="#12284F"/>
<path d="M285.189 86.6398C287.852 83.593 289.568 80.4069 290.279 78.9738C292.056 75.3904 293.476 56.394 284.241 46.5381C281.045 43.1335 267.004 38.8194 265.951 38.6537C244.7 35.3075 232.063 40.8738 224.524 51.9349C222.039 56.2358 221.158 64.7661 221.662 73.142C221.942 77.7913 226.177 83.0959 226.177 83.0959L226.618 83.8849C226.618 83.8849 225.886 85.6568 223.981 87.6152C222.108 89.5416 219.785 90.8014 219.785 90.8014C219.785 90.8014 222.854 91.9124 226.034 91.5847C229.448 91.2326 230.435 90.2647 230.435 90.2647C230.435 90.2647 240.064 104.205 267.728 98.328C270.747 97.7913 273.766 96.1775 276.429 94.206C278.026 95.4601 280.513 97.2527 283.532 98.328C290.102 100.478 296.495 96.3564 296.495 96.3564C296.47 96.443 287.898 93.2023 285.191 86.6398H285.189Z" fill="#FFB000"/>
<path d="M281.401 55.8575C278.028 50.1236 265.011 42.6572 247.664 44.03C242.613 44.4292 235.235 47.6134 232.57 50.4813C224.935 58.5446 226.177 74.4942 227.597 77.541C228.002 78.4957 227.597 80.9456 226.887 83.096C225.644 87.5758 219.783 90.8015 219.783 90.8015C219.783 90.8015 225.496 92.9275 230.21 90.3872C232.311 89.2555 233.988 87.9336 235.054 86.6795C238.427 89.7263 242.334 92.5923 246.417 93.4887C261.333 96.5355 271.454 89.5455 271.454 89.5455C271.454 89.5455 282.082 83.8982 283.528 71.0877C283.831 68.4175 283.528 59.4391 281.398 55.8556L281.401 55.8575Z" fill="#1D5663"/>
<path d="M261.869 53.8857C255.43 53.1193 245.305 54.6597 241.271 61.0546C239.14 64.1522 240.73 71.2419 239.14 76.1078C238.075 79.8701 233.102 82.5592 233.102 82.5592C233.102 82.5592 237.718 84.5307 241.98 82.5592C243.4 81.8417 244.643 80.7665 245.531 79.6913C245.531 79.6913 250.578 86.4533 262.932 84.1711C268.26 83.0958 273.587 76.1078 274.475 74.3151C275.363 72.5224 276.072 62.6665 271.456 57.8289C271.456 57.8289 268.306 54.6521 261.867 53.8857H261.869Z" fill="#F2F1ED"/>
</g>
<defs>
<clipPath id="clip0_37_235">
<rect width="167" height="142" fill="white" transform="translate(169)"/>
</clipPath>
</defs>
</svg>
